<mxfile host="Electron" agent="Mozilla/5.0 (Macintosh; Intel Mac OS X 10_15_7) AppleWebKit/537.36 (KHTML, like Gecko) draw.io/24.7.17 Chrome/128.0.6613.36 Electron/32.0.1 Safari/537.36" version="24.7.17">
  <diagram name="ページ1" id="lw-BI-eVXw-oj37eGPoU">
    <mxGraphModel dx="1434" dy="780" grid="1" gridSize="10" guides="1" tooltips="1" connect="1" arrows="1" fold="1" page="1" pageScale="1" pageWidth="827" pageHeight="1169" math="1" shadow="0">
      <root>
        <mxCell id="0" />
        <mxCell id="1" parent="0" />
        <mxCell id="WzyhocyH9ekEABaUpR14-3" value="" style="rounded=1;whiteSpace=wrap;html=1;fillColor=none;" vertex="1" parent="1">
          <mxGeometry x="20" y="30" width="310" height="170" as="geometry" />
        </mxCell>
        <mxCell id="WzyhocyH9ekEABaUpR14-4" value="" style="ellipse;whiteSpace=wrap;html=1;aspect=fixed;fillColor=#f8cecc;strokeColor=#b85450;" vertex="1" parent="1">
          <mxGeometry x="180" y="80" width="70" height="70" as="geometry" />
        </mxCell>
        <mxCell id="WzyhocyH9ekEABaUpR14-5" value="$$C$$" style="text;html=1;align=center;verticalAlign=middle;resizable=0;points=[];autosize=1;strokeColor=none;fillColor=none;" vertex="1" parent="1">
          <mxGeometry x="185" y="150" width="60" height="30" as="geometry" />
        </mxCell>
        <mxCell id="WzyhocyH9ekEABaUpR14-12" value="" style="group" vertex="1" connectable="0" parent="1">
          <mxGeometry x="120" y="80" width="90" height="80" as="geometry" />
        </mxCell>
        <mxCell id="WzyhocyH9ekEABaUpR14-7" style="rounded=0;orthogonalLoop=1;jettySize=auto;html=1;endArrow=none;endFill=0;" edge="1" parent="WzyhocyH9ekEABaUpR14-12" source="WzyhocyH9ekEABaUpR14-6">
          <mxGeometry relative="1" as="geometry">
            <mxPoint x="10" y="80" as="targetPoint" />
          </mxGeometry>
        </mxCell>
        <mxCell id="WzyhocyH9ekEABaUpR14-9" style="rounded=0;orthogonalLoop=1;jettySize=auto;html=1;endArrow=none;endFill=0;" edge="1" parent="WzyhocyH9ekEABaUpR14-12" source="WzyhocyH9ekEABaUpR14-6">
          <mxGeometry relative="1" as="geometry">
            <mxPoint as="targetPoint" />
          </mxGeometry>
        </mxCell>
        <mxCell id="WzyhocyH9ekEABaUpR14-6" value="" style="shape=waypoint;sketch=0;size=6;pointerEvents=1;points=[];fillColor=none;resizable=0;rotatable=0;perimeter=centerPerimeter;snapToPoint=1;" vertex="1" parent="WzyhocyH9ekEABaUpR14-12">
          <mxGeometry x="70" y="30" width="20" height="20" as="geometry" />
        </mxCell>
        <mxCell id="WzyhocyH9ekEABaUpR14-10" value="" style="endArrow=classic;startArrow=classic;html=1;rounded=0;dashed=1;curved=1;" edge="1" parent="WzyhocyH9ekEABaUpR14-12">
          <mxGeometry width="50" height="50" relative="1" as="geometry">
            <mxPoint x="60" y="75" as="sourcePoint" />
            <mxPoint x="50" y="5" as="targetPoint" />
            <Array as="points">
              <mxPoint x="40" y="45" />
            </Array>
          </mxGeometry>
        </mxCell>
        <mxCell id="WzyhocyH9ekEABaUpR14-13" value="$$\mathrm{Bin}(n-k,1/2)$$" style="text;html=1;align=center;verticalAlign=middle;resizable=0;points=[];autosize=1;strokeColor=none;fillColor=none;" vertex="1" parent="WzyhocyH9ekEABaUpR14-12">
          <mxGeometry x="-90" y="25" width="160" height="30" as="geometry" />
        </mxCell>
        <mxCell id="WzyhocyH9ekEABaUpR14-21" value="" style="group" vertex="1" connectable="0" parent="1">
          <mxGeometry x="190" y="91" width="90" height="50" as="geometry" />
        </mxCell>
        <mxCell id="WzyhocyH9ekEABaUpR14-19" value="$$k-1$$" style="text;html=1;align=center;verticalAlign=middle;resizable=0;points=[];autosize=1;strokeColor=none;fillColor=none;" vertex="1" parent="WzyhocyH9ekEABaUpR14-21">
          <mxGeometry x="20" y="5" width="70" height="30" as="geometry" />
        </mxCell>
        <mxCell id="WzyhocyH9ekEABaUpR14-15" style="rounded=0;orthogonalLoop=1;jettySize=auto;html=1;endArrow=none;endFill=0;" edge="1" parent="WzyhocyH9ekEABaUpR14-21" source="WzyhocyH9ekEABaUpR14-17">
          <mxGeometry relative="1" as="geometry">
            <mxPoint x="50" y="40" as="targetPoint" />
          </mxGeometry>
        </mxCell>
        <mxCell id="WzyhocyH9ekEABaUpR14-16" style="rounded=0;orthogonalLoop=1;jettySize=auto;html=1;endArrow=none;endFill=0;" edge="1" parent="WzyhocyH9ekEABaUpR14-21" source="WzyhocyH9ekEABaUpR14-17">
          <mxGeometry relative="1" as="geometry">
            <mxPoint x="40" as="targetPoint" />
          </mxGeometry>
        </mxCell>
        <mxCell id="WzyhocyH9ekEABaUpR14-17" value="" style="shape=waypoint;sketch=0;size=6;pointerEvents=1;points=[];fillColor=none;resizable=0;rotatable=0;perimeter=centerPerimeter;snapToPoint=1;" vertex="1" parent="WzyhocyH9ekEABaUpR14-21">
          <mxGeometry y="18.589999999999975" width="20" height="20" as="geometry" />
        </mxCell>
        <mxCell id="WzyhocyH9ekEABaUpR14-18" value="" style="endArrow=classic;startArrow=classic;html=1;rounded=0;dashed=1;curved=1;" edge="1" parent="WzyhocyH9ekEABaUpR14-21">
          <mxGeometry width="50" height="50" relative="1" as="geometry">
            <mxPoint x="26" y="50" as="sourcePoint" />
            <mxPoint x="20" as="targetPoint" />
            <Array as="points">
              <mxPoint x="36" y="28.590000000000032" />
            </Array>
          </mxGeometry>
        </mxCell>
      </root>
    </mxGraphModel>
  </diagram>
</mxfile>
